<svg width="460" height="420" viewBox="0 0 460 420" fill="none" xmlns="http://www.w3.org/2000/svg">
<g clip-path="url(#clip0_136_17)">
<rect width="460" height="420" rx="28" fill="#062530"/>
<line x1="20.25" x2="20.25" y2="420" stroke="white" stroke-opacity="0.0588235" stroke-width="0.5"/>
<line x1="40.25" x2="40.25" y2="420" stroke="white" stroke-opacity="0.0588235" stroke-width="0.5"/>
<line x1="60.25" x2="60.25" y2="420" stroke="white" stroke-opacity="0.0588235" stroke-width="0.5"/>
<line x1="80.25" x2="80.25" y2="420" stroke="white" stroke-opacity="0.0588235" stroke-width="0.5"/>
<line x1="100.25" x2="100.25" y2="420" stroke="white" stroke-opacity="0.0588235" stroke-width="0.5"/>
<line x1="120.25" x2="120.25" y2="420" stroke="white" stroke-opacity="0.0588235" stroke-width="0.5"/>
<line x1="140.25" x2="140.25" y2="420" stroke="white" stroke-opacity="0.0588235" stroke-width="0.5"/>
<line x1="160.25" x2="160.25" y2="420" stroke="white" stroke-opacity="0.0588235" stroke-width="0.5"/>
<line x1="180.25" x2="180.25" y2="420" stroke="white" stroke-opacity="0.0588235" stroke-width="0.5"/>
<line x1="200.25" x2="200.25" y2="420" stroke="white" stroke-opacity="0.0588235" stroke-width="0.5"/>
<line x1="220.25" x2="220.25" y2="420" stroke="white" stroke-opacity="0.0588235" stroke-width="0.5"/>
<line x1="240.25" x2="240.25" y2="420" stroke="white" stroke-opacity="0.0588235" stroke-width="0.5"/>
<line x1="260.25" x2="260.25" y2="420" stroke="white" stroke-opacity="0.0588235" stroke-width="0.5"/>
<line x1="280.25" x2="280.25" y2="420" stroke="white" stroke-opacity="0.0588235" stroke-width="0.5"/>
<line x1="300.25" x2="300.25" y2="420" stroke="white" stroke-opacity="0.0588235" stroke-width="0.5"/>
<line x1="320.25" x2="320.25" y2="420" stroke="white" stroke-opacity="0.0588235" stroke-width="0.5"/>
<line x1="340.25" x2="340.25" y2="420" stroke="white" stroke-opacity="0.0588235" stroke-width="0.5"/>
<line x1="360.25" x2="360.25" y2="420" stroke="white" stroke-opacity="0.0588235" stroke-width="0.5"/>
<line x1="380.25" x2="380.25" y2="420" stroke="white" stroke-opacity="0.0588235" stroke-width="0.5"/>
<line x1="400.25" x2="400.25" y2="420" stroke="white" stroke-opacity="0.0588235" stroke-width="0.5"/>
<line x1="420.25" x2="420.25" y2="420" stroke="white" stroke-opacity="0.0588235" stroke-width="0.5"/>
<line x1="440.25" x2="440.25" y2="420" stroke="white" stroke-opacity="0.0588235" stroke-width="0.5"/>
<line y1="19.75" x2="460" y2="19.75" stroke="white" stroke-opacity="0.0588235" stroke-width="0.5"/>
<line y1="39.75" x2="460" y2="39.75" stroke="white" stroke-opacity="0.0588235" stroke-width="0.5"/>
<line y1="59.75" x2="460" y2="59.75" stroke="white" stroke-opacity="0.0588235" stroke-width="0.5"/>
<line y1="79.75" x2="460" y2="79.75" stroke="white" stroke-opacity="0.0588235" stroke-width="0.5"/>
<line y1="99.75" x2="460" y2="99.75" stroke="white" stroke-opacity="0.0588235" stroke-width="0.5"/>
<line y1="119.75" x2="460" y2="119.75" stroke="white" stroke-opacity="0.0588235" stroke-width="0.5"/>
<line y1="139.75" x2="460" y2="139.75" stroke="white" stroke-opacity="0.0588235" stroke-width="0.5"/>
<line y1="159.75" x2="460" y2="159.75" stroke="white" stroke-opacity="0.0588235" stroke-width="0.5"/>
<line y1="179.75" x2="460" y2="179.75" stroke="white" stroke-opacity="0.0588235" stroke-width="0.5"/>
<line y1="199.75" x2="460" y2="199.75" stroke="white" stroke-opacity="0.0588235" stroke-width="0.5"/>
<line y1="219.75" x2="460" y2="219.75" stroke="white" stroke-opacity="0.0588235" stroke-width="0.5"/>
<line y1="239.75" x2="460" y2="239.75" stroke="white" stroke-opacity="0.0588235" stroke-width="0.5"/>
<line y1="259.75" x2="460" y2="259.75" stroke="white" stroke-opacity="0.0588235" stroke-width="0.5"/>
<line y1="279.75" x2="460" y2="279.75" stroke="white" stroke-opacity="0.0588235" stroke-width="0.5"/>
<line y1="299.75" x2="460" y2="299.75" stroke="white" stroke-opacity="0.0588235" stroke-width="0.5"/>
<line y1="319.75" x2="460" y2="319.75" stroke="white" stroke-opacity="0.0588235" stroke-width="0.5"/>
<line y1="339.75" x2="460" y2="339.75" stroke="white" stroke-opacity="0.0588235" stroke-width="0.5"/>
<line y1="359.75" x2="460" y2="359.75" stroke="white" stroke-opacity="0.0588235" stroke-width="0.5"/>
<line y1="379.75" x2="460" y2="379.75" stroke="white" stroke-opacity="0.0588235" stroke-width="0.5"/>
<line y1="399.75" x2="460" y2="399.75" stroke="white" stroke-opacity="0.0588235" stroke-width="0.5"/>
<rect opacity="0.12" x="-20" y="10" width="220" height="220" rx="56" transform="rotate(18 -20 10)" fill="url(#paint0_linear_136_17)"/>
<rect opacity="0.1" x="260" y="190" width="220" height="220" rx="56" transform="rotate(-18 260 190)" fill="url(#paint1_linear_136_17)"/>
<rect x="64" y="122" width="72" height="72" rx="20" transform="rotate(-12 64 122)" fill="url(#paint2_linear_136_17)"/>
<rect opacity="0.35" x="74" y="132" width="72" height="72" rx="20" transform="rotate(-12 74 132)" fill="#062530"/>
<rect x="86" y="144" width="28" height="28" rx="10" transform="rotate(18 86 144)" fill="#69BABB"/>
<rect opacity="0.35" x="90" y="148" width="28" height="28" rx="10" transform="rotate(18 90 148)" fill="#062530"/>
<rect x="190" y="98" width="96" height="96" rx="24" transform="rotate(-10 190 98)" fill="url(#paint3_linear_136_17)"/>
<rect opacity="0.35" x="200" y="108" width="96" height="96" rx="24" transform="rotate(-10 200 108)" fill="#062530"/>
<rect x="218" y="126" width="40" height="40" rx="14" transform="rotate(10 218 126)" fill="#69BABB"/>
<rect opacity="0.35" x="222" y="130" width="40" height="40" rx="14" transform="rotate(10 222 130)" fill="#062530"/>
<rect x="300" y="122" width="120" height="120" rx="28" transform="rotate(12 300 122)" fill="url(#paint4_linear_136_17)"/>
<rect opacity="0.35" x="310" y="132" width="120" height="120" rx="28" transform="rotate(12 310 132)" fill="#062530"/>
<rect x="322" y="206" width="18" height="36" rx="6" fill="#69BABB"/>
<rect x="348" y="194" width="18" height="48" rx="6" fill="#69BABB"/>
<rect x="374" y="180" width="18" height="62" rx="6" fill="#69BABB"/>
<rect x="400" y="166" width="18" height="76" rx="6" fill="#69BABB"/>
<rect x="64" y="230" width="96" height="96" rx="24" transform="rotate(-10 64 230)" fill="url(#paint5_linear_136_17)"/>
<rect opacity="0.35" x="74" y="240" width="96" height="96" rx="24" transform="rotate(-10 74 240)" fill="#062530"/>
<rect x="92" y="258" width="40" height="40" rx="14" transform="rotate(10 92 258)" fill="#69BABB"/>
<rect opacity="0.35" x="96" y="262" width="40" height="40" rx="14" transform="rotate(10 96 262)" fill="#062530"/>
<rect x="190" y="270" width="120" height="120" rx="28" transform="rotate(12 190 270)" fill="url(#paint6_linear_136_17)"/>
<rect opacity="0.35" x="200" y="280" width="120" height="120" rx="28" transform="rotate(12 200 280)" fill="#062530"/>
<rect x="212" y="292" width="18" height="18" rx="6" fill="#69BABB"/>
<rect x="238" y="292" width="18" height="18" rx="6" fill="#69BABB"/>
<rect x="264" y="292" width="18" height="18" rx="6" fill="#69BABB"/>
<rect x="212" y="318" width="18" height="18" rx="6" fill="#69BABB"/>
<rect x="238" y="318" width="18" height="18" rx="6" fill="#69BABB"/>
<rect x="264" y="318" width="18" height="18" rx="6" fill="#69BABB"/>
<rect x="212" y="344" width="18" height="18" rx="6" fill="#69BABB"/>
<rect x="238" y="344" width="18" height="18" rx="6" fill="#69BABB"/>
<rect x="264" y="344" width="18" height="18" rx="6" fill="#69BABB"/>
</g>
<defs>
<linearGradient id="paint0_linear_136_17" x1="90" y1="10" x2="200" y2="120" gradientUnits="userSpaceOnUse">
<stop stop-color="#046675"/>
<stop offset="1" stop-color="#07BFDB"/>
</linearGradient>
<linearGradient id="paint1_linear_136_17" x1="370" y1="190" x2="480" y2="300" gradientUnits="userSpaceOnUse">
<stop stop-color="#046675"/>
<stop offset="1" stop-color="#07BFDB"/>
</linearGradient>
<linearGradient id="paint2_linear_136_17" x1="100" y1="122" x2="136" y2="158" gradientUnits="userSpaceOnUse">
<stop stop-color="#046675"/>
<stop offset="1" stop-color="#07BFDB"/>
</linearGradient>
<linearGradient id="paint3_linear_136_17" x1="238" y1="98" x2="286" y2="146" gradientUnits="userSpaceOnUse">
<stop stop-color="#046675"/>
<stop offset="1" stop-color="#07BFDB"/>
</linearGradient>
<linearGradient id="paint4_linear_136_17" x1="360" y1="122" x2="420" y2="182" gradientUnits="userSpaceOnUse">
<stop stop-color="#046675"/>
<stop offset="1" stop-color="#07BFDB"/>
</linearGradient>
<linearGradient id="paint5_linear_136_17" x1="112" y1="230" x2="160" y2="278" gradientUnits="userSpaceOnUse">
<stop stop-color="#046675"/>
<stop offset="1" stop-color="#07BFDB"/>
</linearGradient>
<linearGradient id="paint6_linear_136_17" x1="250" y1="270" x2="310" y2="330" gradientUnits="userSpaceOnUse">
<stop stop-color="#046675"/>
<stop offset="1" stop-color="#07BFDB"/>
</linearGradient>
<clipPath id="clip0_136_17">
<rect width="460" height="420" rx="28" fill="white"/>
</clipPath>
</defs>
</svg>
