<svg width="24" height="24" viewBox="0 0 24 24" fill="none" xmlns="http://www.w3.org/2000/svg">
<path d="M1.5 13.782C1.5 13.782 4.5 12.5 7 12.5C8.7635 12.5 10.7 13.209 11.997 13.7935C12.992 14.2415 13.5645 14.5245 13.792 15.592C13.9505 16.3335 13.418 17.5695 12.662 17.6305L12.1295 17.6735M12.1295 17.6735C10.9085 17.6735 9.0185 17.3115 9.0185 17.3115M12.1295 17.6735C13.823 17.6735 18.281 16.869 19.861 16.5735C20.238 16.5035 20.6285 16.452 20.987 16.587C21.438 16.7575 22.043 17.169 22.332 18.162C22.558 18.938 22.0155 19.6845 21.262 19.976C19.052 20.831 14.4435 22.5 12.1295 22.5C6 22.5 1.5 20.9615 1.5 20.9615M15.063 11.49C15.079 11.9515 15.365 12.3485 15.821 12.4185C16.116 12.4635 16.5055 12.5 17 12.5C17.3945 12.5028 17.7886 12.4756 18.179 12.4185C18.635 12.3485 18.921 11.9515 18.937 11.4905C18.9555 10.9605 18.977 10.139 18.9895 8.98946C19.8233 8.9818 20.6571 8.9643 21.4905 8.93696C21.9515 8.92096 22.3485 8.63496 22.4185 8.17896C22.4635 7.88396 22.5 7.49446 22.5 6.99996C22.5029 6.60546 22.4756 6.21132 22.4185 5.82096C22.3485 5.36496 21.9515 5.07896 21.4905 5.06296C20.9605 5.04446 20.139 5.02296 18.9895 5.01046C18.9818 4.17662 18.9643 3.34289 18.937 2.50946C18.921 2.04846 18.635 1.65146 18.179 1.58146C17.7886 1.52452 17.3945 1.49727 17 1.49996C16.6055 1.49708 16.2114 1.52433 15.821 1.58146C15.365 1.65146 15.079 2.04846 15.063 2.50946C15.0445 3.03946 15.023 3.86096 15.0105 5.01046C14.1767 5.01812 13.3429 5.03563 12.5095 5.06296C12.0485 5.07896 11.6515 5.36496 11.5815 5.82096C11.5365 6.11596 11.5 6.50546 11.5 6.99996C11.5 7.49446 11.536 7.88446 11.5815 8.17896C11.6515 8.63496 12.0485 8.92096 12.5095 8.93696C13.0395 8.95546 13.861 8.97696 15.0105 8.98946C15.023 10.139 15.0445 10.961 15.063 11.4905V11.49Z" stroke="#685216" stroke-width="1.5" stroke-linecap="round" stroke-linejoin="round"/>
</svg>
